<svg xmlns="http://www.w3.org/2000/svg" viewBox="0 0 500 500">
  <!-- Background -->
  <circle cx="250" cy="250" r="240" fill="#ffffff" />
  
  <!-- Hands (Gold) -->
  <path d="M100,350 Q250,500 400,350 Q350,400 250,450 Q150,400 100,350 Z" fill="#DAA520" />
  
  <!-- Book (Blue/White) -->
  <path d="M150,320 Q250,350 350,320 L350,340 Q250,370 150,340 Z" fill="#003366" />
  <path d="M150,315 Q250,345 350,315 L350,335 Q250,365 150,335 Z" fill="#ffffff" />

  <!-- Tree (Green) -->
  <path d="M250,340 Q250,200 250,150 Q200,100 150,150 Q200,50 250,50 Q300,50 350,150 Q300,100 250,150 Q250,200 250,340" fill="#228B22" />
  <circle cx="150" cy="150" r="30" fill="#228B22" />
  <circle cx="350" cy="150" r="30" fill="#228B22" />
  <circle cx="250" cy="100" r="40" fill="#228B22" />
  <circle cx="200" cy="120" r="30" fill="#228B22" />
  <circle cx="300" cy="120" r="30" fill="#228B22" />

  <!-- Blood Drop (Red) -->
  <path d="M120,280 Q120,250 135,230 Q150,250 150,280 A15,15 0 1,1 120,280 Z" fill="#DC143C" />

  <!-- Text -->
  <text x="50%" y="420" font-family="serif" font-size="35" font-weight="bold" fill="#006400" text-anchor="middle">RAMESH BALHARA</text>
  <text x="50%" y="450" font-family="sans-serif" font-size="20" fill="#DAA520" text-anchor="middle">CHARITABLE TRUST</text>
</svg>
